<svg id="Capa_1" data-name="Capa 1" xmlns="http://www.w3.org/2000/svg" viewBox="0 0 1080 1080"><defs><style>.cls-1{fill:#fff;}</style></defs><path class="cls-1" d="M608.84,439.2l-2.58,4.21a3.4,3.4,0,0,0-.18.3c0,.06-.07.12-.11.17s-.18.28-.26.42l0,0c-2.71,4.12-5.56,8.14-8.42,12.12-.48.7-11.26,14.39-25.3,32.12a23.64,23.64,0,0,0-28.74,36.2c-10.45,13.11-20.35,25.46-27.48,34.23-30.29,37.26-40.65,49.3-42.81,51.67H445.1v-68l7.81-6.51c10.15-8.45,28.81-24,47.59-39.68,27.13-22.65,70.81-56.82,71.44-57.29Z"/><path class="cls-1" d="M636.29,395.7c-.34,10.21-6.13,20.76-10.69,29.58-2.17,4.23-2.34,4.07-4.54,8.27,0,0-.67,1.23-1.4,2.54s-1.52,2.72-1.77,3.11V610.65H487.73c11.75-15.83,35.85-48.94,59.62-82a23.63,23.63,0,1,0,27.4-38.5c14.51-20.67,26.89-38.72,29-42.16s4.55-7.91,5.11-8.83h0L609,439c.22-.39.39-.64.44-.72A200.06,200.06,0,0,0,623.59,410c1.5-3.95,2.85-7.6,3.23-11.74.15-1.58.28-3.59-.69-4.4-.48-.36-1.09-.47-2.7.12a55.06,55.06,0,0,0-9.72,4.59,160.75,160.75,0,0,0-15.47,9.68c-13.74,9.52-26.79,20.11-39.56,30.94-1,.78-1.87,1.56-2.79,2.34-29.91,25.52-83.07,75.74-103,94.65l-7.81,7.43V439.19H548.05q14.81-12.65,30.24-24.46c11.05-8.46,22.57-17.06,35.21-23.07,6.23-3,16.22-7.53,21.09-2.81C636.31,390.69,636.37,393.2,636.29,395.7Z"/><path class="cls-1" d="M526.54,399.45c-5.36,6.77-5.25,8.55.11,15.32a.15.15,0,0,1-.21.21c-6.78-5.36-9.75-5.4-26.66,11.22-.12.13-.33-.08-.2-.21,17.14-17.33,16.78-19.66,11.43-26.44a.15.15,0,0,1,.2-.21c6.78,5.36,8.35,5.26,15.12-.1A.15.15,0,0,1,526.54,399.45Z"/><path class="cls-1" d="M576,378.67c-9,11.39-8.84,14.37.17,25.76a.25.25,0,0,1-.35.35c-11.39-9-16.38-9.08-44.81,18.87-.21.2-.55-.14-.35-.35,28.83-29.15,28.23-33.07,19.22-44.46a.25.25,0,0,1,.35-.35c11.39,9,14,8.84,25.42-.17A.25.25,0,0,1,576,378.67Z"/><path class="cls-1" d="M375.71,669.61c0,11.07-7.73,18.16-19,18.16H330.46V701H317.7V651.39h39C368,651.39,375.71,658.55,375.71,669.61Zm-12.77,0c0-7.51-5.95-7.51-9.78-7.51h-22.7v15h22.7C357,677.06,362.94,677.06,362.94,669.61Z"/><path class="cls-1" d="M429.67,686.28,438.82,701h-15l-8-13.26H395.2V701H382.44V651.39h39c11.28,0,19,7.16,19,18.22C440.45,677.7,436.34,683.66,429.67,686.28Zm-34.47-9.22h22.7c3.83,0,9.78,0,9.78-7.45s-5.95-7.51-9.78-7.51H395.2Z"/><path class="cls-1" d="M446,676.14c0-16.45,9.36-25.46,31.21-25.46s31.2,9.08,31.2,25.46-9.43,25.6-31.2,25.6S446,692.66,446,676.14Zm49.65,0c0-10.07-5.11-14.75-18.44-14.75s-18.44,4.61-18.44,14.75S464,691,477.25,691,495.69,686.28,495.69,676.14Z"/><path class="cls-1" d="M527.94,661.53V671.6h39.72v9.22H527.94v10.07h39.72V701H515.18V651.39h52.48v10.14Z"/><path class="cls-1" d="M634.53,676.21c0,16.88-11.28,24.82-24.11,24.82h-36V651.39h36C623.25,651.39,634.53,659.33,634.53,676.21Zm-12.77,0c0-12.06-6.52-14.11-16.17-14.11H587.15v28.22h18.44C615.24,690.32,621.76,688.27,621.76,676.21Z"/><path class="cls-1" d="M671.25,674.44h31.49V701h-9.43l-.57-7.8c-4.68,5.11-12.13,8.51-22.69,8.51-18.3,0-29.5-9.08-29.5-25.53s11.2-25.53,31.63-25.53c19.85,0,29.78,7.73,30.56,20.07h-13c-.71-3.76-4.11-9.36-17.58-9.36-16.6,0-18.87,9.15-18.87,15.1s2.34,15.39,18.87,15.39c12.34,0,17.3-5.39,17.58-9.15H671.25Z"/><path class="cls-1" d="M722.59,661.53V671.6H762.3v9.22H722.59v10.07H762.3V701H709.82V651.39H762.3v10.14Z"/></svg>