<svg id="Capa_1" data-name="Capa 1" xmlns="http://www.w3.org/2000/svg" viewBox="0 0 1014 1080"><path d="M733.34,356.42l-8.59,14a11.1,11.1,0,0,0-.58,1c-.13.18-.25.38-.37.57-.3.44-.59.91-.87,1.37,0,0,0,0,0,.06-9,13.69-18.47,27-28,40.29-1.62,2.33-37.43,47.79-84,106.69a78.52,78.52,0,0,0-95.49,120.24c-34.7,43.55-67.59,84.58-91.29,113.72C323.48,878.14,289.07,918.12,281.9,926H189.42V700.2s9.68-8.08,26-21.63c33.72-28.09,95.69-79.78,158.07-131.83C463.57,471.52,608.68,358,610.77,356.42Z"/><path d="M824.52,211.93c-1.12,33.93-20.36,68.95-35.5,98.26-7.23,14.07-7.77,13.51-15.09,27.46,0,.05-2.23,4.11-4.67,8.46s-5,9-5.84,10.32V926H331c39-52.62,119.12-162.58,198-272.28a78.51,78.51,0,1,0,91-127.89c48.2-68.67,89.32-128.61,96.33-140.06,6.74-11,15.11-26.27,17-29.33h0s0,0,0,0h.07a4.07,4.07,0,0,0,.29-.55c.73-1.3,1.31-2.12,1.47-2.41,17.75-30.21,34.42-61.37,47.15-94,5-13.15,9.44-25.27,10.71-39,.49-5.24.94-11.92-2.28-14.6-1.6-1.2-3.61-1.56-9,.38-13.95,5.07-17.75,7.39-32.26,15.25a534.35,534.35,0,0,0-51.39,32.17c-45.67,31.63-89,66.81-131.44,102.77-3.17,2.59-6.18,5.18-9.24,7.77C458.07,449,281.5,615.76,215.37,678.58c-16.29,15.49-25.87,24.64-26,24.71V356.4h342q49.22-42,100.47-81.25c36.7-28.09,75-56.66,117-76.64,20.69-9.87,53.86-25,70-9.33C824.61,195.3,824.78,203.62,824.52,211.93Z"/><path d="M460,224.38c-17.8,22.51-17.45,28.41.35,50.92a.49.49,0,0,1-.69.69c-22.51-17.81-32.37-17.94-88.54,37.27-.42.41-1.1-.27-.69-.69,56.95-57.6,55.77-65.34,38-87.85A.49.49,0,0,1,409,224c22.51,17.8,27.72,17.46,50.23-.34A.49.49,0,0,1,460,224.38Z"/><path d="M624.27,155.35c-29.93,37.84-29.35,47.76.58,85.6a.83.83,0,0,1-1.16,1.16c-37.84-29.93-54.42-30.16-148.85,62.66-.7.69-1.85-.46-1.16-1.16,95.75-96.82,93.75-109.84,63.82-147.68a.83.83,0,0,1,1.16-1.16c37.84,29.93,46.61,29.35,84.45-.58A.83.83,0,0,1,624.27,155.35Z"/></svg>