<svg id="Capa_1" data-name="Capa 1" xmlns="http://www.w3.org/2000/svg" viewBox="0 0 1080 523"><defs><style>.cls-1{fill:#fff;}</style></defs><path class="cls-1" d="M317.15,187l-3.49,5.69c-.09.13-.16.27-.24.4l-.14.23c-.13.18-.24.37-.36.56v0c-3.67,5.56-7.5,11-11.35,16.34-.66.95-15.18,19.39-34.09,43.28a31.86,31.86,0,0,0-38.74,48.78c-14.08,17.66-27.42,34.31-37,46.13-40.82,50.21-54.77,66.43-57.68,69.62H96.5v-91.6L107,317.71c13.68-11.39,38.82-32.36,64.12-53.48,36.56-30.51,95.43-76.56,96.27-77.2Z"/><path class="cls-1" d="M354.13,128.42c-.45,13.76-8.26,28-14.4,39.86-2.93,5.7-3.15,5.48-6.12,11.14,0,0-.9,1.66-1.89,3.43s-2,3.66-2.37,4.18V418.08H153.94c15.84-21.35,48.32-65.95,80.34-110.45a31.85,31.85,0,1,0,36.93-51.88c19.55-27.86,36.23-52.17,39.08-56.82,2.73-4.46,6.13-10.66,6.88-11.9h0a1.51,1.51,0,0,0,.11-.22c.3-.53.54-.86.6-1,7.2-12.25,14-24.89,19.13-38.12,2-5.34,3.83-10.26,4.34-15.83.2-2.13.38-4.84-.92-5.93-.65-.49-1.47-.63-3.65.16-5.66,2.05-7.2,3-13.09,6.18a219,219,0,0,0-20.84,13.05c-18.53,12.83-36.11,27.11-53.32,41.69-1.29,1-2.51,2.1-3.75,3.16-40.32,34.39-112,102.05-138.77,127.53l-10.53,10V187H235.22q20-17,40.76-33c14.89-11.39,30.41-23,47.44-31.09,8.4-4,21.86-10.15,28.42-3.78C354.17,121.67,354.24,125.05,354.13,128.42Z"/><path class="cls-1" d="M206.25,133.47c-7.23,9.13-7.09,11.52.14,20.65a.2.2,0,0,1-.28.28c-9.13-7.22-13.13-7.28-35.92,15.12-.17.17-.45-.11-.28-.28,23.1-23.36,22.62-26.5,15.4-35.63a.2.2,0,0,1,.28-.28c9.13,7.22,11.25,7.08,20.38-.14A.2.2,0,0,1,206.25,133.47Z"/><path class="cls-1" d="M272.9,105.46c-12.14,15.35-11.9,19.38.24,34.73a.33.33,0,0,1-.47.47c-15.35-12.14-22.08-12.23-60.38,25.42-.29.28-.75-.19-.47-.47,38.84-39.28,38-44.56,25.88-59.91a.34.34,0,0,1,.48-.47c15.35,12.14,18.9,11.9,34.25-.24A.33.33,0,0,1,272.9,105.46Z"/><path class="cls-1" d="M462.55,266.33c0,14.9-10.41,24.46-25.6,24.46H401.6v17.86H384.4V241.77H437C452.14,241.77,462.55,251.42,462.55,266.33Zm-17.2,0c0-10.13-8-10.13-13.18-10.13H401.6v20.16h30.57C437.33,276.36,445.35,276.36,445.35,266.33Z"/><path class="cls-1" d="M535.27,288.78l12.32,19.87H527.34l-10.8-17.86H488.83v17.86H471.64V241.77h52.55c15.19,0,25.6,9.65,25.6,24.56C549.79,277.22,544.25,285.25,535.27,288.78Zm-46.44-12.42h30.58c5.16,0,13.18,0,13.18-10s-8-10.13-13.18-10.13H488.83Z"/><path class="cls-1" d="M557.35,275.12c0-22.17,12.61-34.3,42-34.3s42,12.23,42,34.3-12.7,34.49-42,34.49S557.35,297.38,557.35,275.12Zm66.88,0c0-13.57-6.88-19.87-24.85-19.87s-24.84,6.21-24.84,19.87,7,20.06,24.84,20.06S624.23,288.78,624.23,275.12Z"/><path class="cls-1" d="M667.71,255.44V269h53.5v12.42h-53.5V295h53.5v13.66h-70.7V241.77h70.7v13.67Z"/><path class="cls-1" d="M811.32,275.21c0,22.74-15.2,33.44-32.49,33.44H730.29V241.77h48.54C796.12,241.77,811.32,252.47,811.32,275.21Zm-17.2,0c0-16.24-8.79-19-21.79-19H747.49v38h24.84C785.33,294.23,794.12,291.46,794.12,275.21Z"/><path class="cls-1" d="M860.81,272.82h42.43v35.83H890.53l-.77-10.51c-6.3,6.88-16.33,11.47-30.57,11.47-24.65,0-39.75-12.23-39.75-34.4s15.1-34.39,42.62-34.39c26.75,0,40.13,10.41,41.18,27H885.75c-1-5.07-5.54-12.61-23.69-12.61-22.36,0-25.42,12.32-25.42,20.35s3.16,20.73,25.42,20.73c16.62,0,23.31-7.26,23.69-12.33H860.81Z"/><path class="cls-1" d="M930,255.44V269h53.5v12.42H930V295h53.5v13.66H912.8V241.77h70.7v13.67Z"/><path class="cls-1" d="M395.13,337h2.72l10.36,25.37h-3.43L401.93,355H391l-2.85,7.44h-3.43ZM401,352.47l-4.49-11.72L392,352.47Z"/><path class="cls-1" d="M434.43,342.36a5.14,5.14,0,0,0-1.14-1,9.71,9.71,0,0,0-1.61-.84,10.75,10.75,0,0,0-1.94-.61,10,10,0,0,0-2.2-.23,7,7,0,0,0-4.32,1.1,3.67,3.67,0,0,0-1.4,3,3.06,3.06,0,0,0,.72,2.14,5.12,5.12,0,0,0,2.19,1.28c1,.33,2.25.67,3.77,1a25.23,25.23,0,0,1,4.58,1.39,7.16,7.16,0,0,1,3,2.19,5.9,5.9,0,0,1,1,3.65,6.65,6.65,0,0,1-.7,3.15,6,6,0,0,1-1.95,2.21,8.58,8.58,0,0,1-2.93,1.28,14.92,14.92,0,0,1-3.64.41,16.88,16.88,0,0,1-3.77-.41,16,16,0,0,1-3.48-1.19,14.85,14.85,0,0,1-3.07-2l1.53-2.71a8.25,8.25,0,0,0,1.48,1.19,13.05,13.05,0,0,0,2.08,1.09,14.19,14.19,0,0,0,2.51.81,13,13,0,0,0,2.79.3,7.73,7.73,0,0,0,4.22-1,3.19,3.19,0,0,0,1.5-2.86,3.11,3.11,0,0,0-.84-2.28,6.51,6.51,0,0,0-2.48-1.43c-1.1-.38-2.43-.76-4-1.14a27.14,27.14,0,0,1-4.32-1.4,6.06,6.06,0,0,1-2.63-2,5.54,5.54,0,0,1-.87-3.24,6.94,6.94,0,0,1,1.18-4.1,7.26,7.26,0,0,1,3.25-2.53,12.16,12.16,0,0,1,4.68-.85,13.58,13.58,0,0,1,3.2.36,12.49,12.49,0,0,1,2.77,1,12.9,12.9,0,0,1,2.36,1.53Z"/><path class="cls-1" d="M441.29,362.41V337h10.58a6.82,6.82,0,0,1,3.07.69,8.2,8.2,0,0,1,2.43,1.86A8.82,8.82,0,0,1,459,342.2a8,8,0,0,1,.57,2.95,8.79,8.79,0,0,1-.93,4,7.83,7.83,0,0,1-2.61,3,6.65,6.65,0,0,1-3.93,1.16h-7.57v9.12Zm3.22-12h7.4a3.79,3.79,0,0,0,2.3-.72,4.71,4.71,0,0,0,1.54-1.93,6.27,6.27,0,0,0,.55-2.64,5.61,5.61,0,0,0-.64-2.7,5.12,5.12,0,0,0-1.68-1.88,4.09,4.09,0,0,0-2.29-.67h-7.18Z"/><path class="cls-1" d="M469.45,337h2.71l10.37,25.37H479.1L476.25,355H465.34l-2.86,7.44h-3.43Zm5.84,15.43-4.48-11.72-4.51,11.72Z"/><path class="cls-1" d="M483.35,349.51a13.52,13.52,0,0,1,.8-4.56,13.21,13.21,0,0,1,2.36-4.07,11.35,11.35,0,0,1,8.91-4,10.63,10.63,0,0,1,5.83,1.55,9.79,9.79,0,0,1,3.61,4L502.32,344a7,7,0,0,0-4.41-3.89,9.09,9.09,0,0,0-2.63-.4,7.89,7.89,0,0,0-3.73.86,8.21,8.21,0,0,0-2.74,2.29,10.32,10.32,0,0,0-1.66,3.19,11.85,11.85,0,0,0-.55,3.56,11.07,11.07,0,0,0,.66,3.79,10.38,10.38,0,0,0,1.84,3.21,9.07,9.07,0,0,0,2.79,2.22,7.55,7.55,0,0,0,3.5.82,8.52,8.52,0,0,0,2.71-.46,8.42,8.42,0,0,0,2.61-1.45,7,7,0,0,0,1.93-2.56l2.68,1.47a7.94,7.94,0,0,1-2.43,3.21,11.78,11.78,0,0,1-3.66,2,12.5,12.5,0,0,1-4,.67,10.28,10.28,0,0,1-4.79-1.12,12.32,12.32,0,0,1-3.77-3,14.28,14.28,0,0,1-2.47-4.22A13.49,13.49,0,0,1,483.35,349.51Z"/><path class="cls-1" d="M526.58,359.55v2.86H509.36V337h16.9v2.86H512.57v8.21h11.9v2.68h-11.9v8.76Z"/><path class="cls-1" d="M557.23,339.9h-8.75v22.51h-3.22V339.9h-8.75V337h20.72Z"/><path class="cls-1" d="M570.42,362.58a10.77,10.77,0,0,1-4.86-1.07,11.75,11.75,0,0,1-3.77-2.91,13.64,13.64,0,0,1-3.31-8.88,13,13,0,0,1,.92-4.84,13.34,13.34,0,0,1,2.53-4.11,12.44,12.44,0,0,1,3.81-2.86,10.77,10.77,0,0,1,4.75-1.05,10.54,10.54,0,0,1,4.86,1.11,12,12,0,0,1,3.75,3,13.85,13.85,0,0,1,2.43,4.15,13.32,13.32,0,0,1,0,9.52,13.1,13.1,0,0,1-2.51,4.11,12.18,12.18,0,0,1-3.81,2.84A10.93,10.93,0,0,1,570.42,362.58Zm-8.68-12.86a11.29,11.29,0,0,0,.62,3.74,10.44,10.44,0,0,0,1.77,3.19,8.58,8.58,0,0,0,2.75,2.22,8.18,8.18,0,0,0,7.22,0,8.58,8.58,0,0,0,2.73-2.28,10.73,10.73,0,0,0,1.72-3.22,11.52,11.52,0,0,0,.59-3.61,11.08,11.08,0,0,0-.63-3.71,10.35,10.35,0,0,0-1.79-3.2,8.53,8.53,0,0,0-2.75-2.22,8.23,8.23,0,0,0-7.16,0,8.3,8.3,0,0,0-2.73,2.27,11,11,0,0,0-1.74,3.19A11.23,11.23,0,0,0,561.74,349.72Z"/><path class="cls-1" d="M594.25,349.51a13.52,13.52,0,0,1,.8-4.56,13.21,13.21,0,0,1,2.36-4.07,11.35,11.35,0,0,1,8.92-4,10.62,10.62,0,0,1,5.82,1.55,9.79,9.79,0,0,1,3.61,4L613.22,344a7,7,0,0,0-4.41-3.89,9,9,0,0,0-2.63-.4,7.89,7.89,0,0,0-3.73.86,8.08,8.08,0,0,0-2.73,2.29,10.13,10.13,0,0,0-1.67,3.19,11.85,11.85,0,0,0-.55,3.56,11.07,11.07,0,0,0,.66,3.79,10.59,10.59,0,0,0,1.84,3.21,9.07,9.07,0,0,0,2.79,2.22,7.55,7.55,0,0,0,3.5.82,8.58,8.58,0,0,0,2.72-.46,8.49,8.49,0,0,0,2.6-1.45,6.86,6.86,0,0,0,1.93-2.56l2.68,1.47a7.94,7.94,0,0,1-2.43,3.21,11.67,11.67,0,0,1-3.66,2,12.5,12.5,0,0,1-4,.67,10.28,10.28,0,0,1-4.79-1.12,12.32,12.32,0,0,1-3.77-3,14.28,14.28,0,0,1-2.47-4.22A13.49,13.49,0,0,1,594.25,349.51Z"/><path class="cls-1" d="M620.26,362.41V337h10.86a6.82,6.82,0,0,1,3.07.69,8.2,8.2,0,0,1,2.43,1.86,8.82,8.82,0,0,1,1.61,2.61,8,8,0,0,1,.57,2.95,8.48,8.48,0,0,1-.66,3.32,7.6,7.6,0,0,1-1.86,2.68,6.53,6.53,0,0,1-2.8,1.54l6.14,9.72H636l-5.79-9.12h-6.71v9.12Zm3.22-12h7.68a3.72,3.72,0,0,0,2.3-.74,4.81,4.81,0,0,0,1.54-1.94,6.2,6.2,0,0,0,.55-2.61,5.47,5.47,0,0,0-.64-2.63,5.38,5.38,0,0,0-1.68-1.91,3.9,3.9,0,0,0-2.29-.71h-7.46Z"/><path class="cls-1" d="M661,359.55v2.86H643.73V337h16.9v2.86H647v8.21h11.9v2.68H647v8.76Z"/><path class="cls-1" d="M673.07,337h2.71l10.36,25.37h-3.43L679.87,355H669l-2.86,7.44h-3.43Zm5.84,15.43-4.49-11.72-4.5,11.72Z"/><path class="cls-1" d="M705.44,339.9h-8.76v22.51h-3.21V339.9h-8.76V337h20.73Z"/><path class="cls-1" d="M726.3,359.55v2.86H709.08V337H726v2.86H712.3v8.21h11.89v2.68H712.3v8.76Z"/></svg>