<svg id="Capa_1" data-name="Capa 1" xmlns="http://www.w3.org/2000/svg" viewBox="0 0 1080 851"><path d="M667,239.54l-4.77,7.78c-.12.18-.22.38-.32.55l-.2.32c-.17.25-.33.51-.49.76a.05.05,0,0,1,0,0c-5,7.6-10.26,15-15.53,22.37-.9,1.29-20.79,26.54-46.68,59.25a43.61,43.61,0,0,0-53,66.77c-19.27,24.19-37.53,47-50.69,63.16-55.88,68.73-75,90.93-79,95.31H364.94V430.45s5.37-4.49,14.41-12c18.72-15.6,53.14-44.3,87.78-73.21,50-41.77,130.64-104.81,131.79-105.69Z"/><path d="M717.63,159.3c-.62,18.84-11.31,38.29-19.72,54.57-4,7.81-4.31,7.5-8.38,15.25,0,0-1.24,2.28-2.59,4.7s-2.79,5-3.24,5.72v316.3H443.57c21.68-29.22,66.15-90.29,110-151.21a43.6,43.6,0,1,0,50.56-71c26.76-38.13,49.6-71.42,53.49-77.78,3.74-6.11,8.39-14.59,9.42-16.29h0a3,3,0,0,0,.16-.31c.41-.72.73-1.18.82-1.34,9.85-16.77,19.11-34.08,26.18-52.19,2.76-7.3,5.24-14,5.95-21.67.27-2.91.52-6.62-1.27-8.11-.89-.67-2-.86-5,.21-7.75,2.82-9.86,4.11-17.92,8.47a295.51,295.51,0,0,0-28.53,17.87c-25.37,17.56-49.43,37.1-73,57.07-1.76,1.44-3.43,2.88-5.13,4.32-55.19,47.08-153.25,139.71-190,174.59l-14.42,13.73V239.53H554.84q27.33-23.34,55.8-45.12c20.38-15.6,41.63-31.47,65-42.56,11.49-5.48,29.91-13.9,38.9-5.18C717.68,150.06,717.77,154.69,717.63,159.3Z"/><path d="M515.17,166.21c-9.88,12.5-9.69,15.78.2,28.28a.27.27,0,0,1-.39.38c-12.5-9.88-18-10-49.17,20.7-.23.23-.61-.15-.38-.38,31.63-32,31-36.29,21.08-48.79a.27.27,0,0,1,.39-.38c12.5,9.89,15.39,9.7,27.89-.19A.27.27,0,0,1,515.17,166.21Z"/><path d="M606.42,127.88c-16.62,21-16.3,26.52.32,47.54a.46.46,0,0,1-.64.64c-21-16.62-30.22-16.75-82.66,34.8-.39.38-1-.26-.64-.65,53.17-53.77,52.06-61,35.44-82a.46.46,0,0,1,.64-.64c21,16.62,25.88,16.29,46.9-.33A.46.46,0,0,1,606.42,127.88Z"/><path d="M236.93,664.61c0,20.4-14.26,33.49-35.07,33.49h-48.4v24.46H129.91V631h72C222.67,631,236.93,644.2,236.93,664.61Zm-23.55,0c0-13.87-11-13.87-18.06-13.87H153.46v27.6h41.86C202.39,678.34,213.38,678.34,213.38,664.61Z"/><path d="M336.47,695.35l16.87,27.21H325.61L310.83,698.1H272.89v24.46H249.34V631h72c20.8,0,35.06,13.22,35.06,33.63C356.35,679.52,348.77,690.51,336.47,695.35Zm-63.58-17h41.86c7.07,0,18.05,0,18.05-13.73s-11-13.87-18.05-13.87H272.89Z"/><path d="M366.67,676.64c0-30.35,17.27-47,57.57-47s57.56,16.75,57.56,47-17.4,47.23-57.56,47.23S366.67,707.12,366.67,676.64Zm91.58,0c0-18.58-9.42-27.21-34-27.21s-34,8.5-34,27.21,9.55,27.48,34,27.48S458.25,695.35,458.25,676.64Z"/><path d="M517.76,649.69v18.58H591v17H517.76v18.57H591v18.71H494.21V631H591v18.71Z"/><path d="M714.38,676.77c0,31.14-20.8,45.79-44.48,45.79H603.44V631H669.9C693.58,631,714.38,645.64,714.38,676.77Zm-23.55,0c0-22.24-12-26-29.83-26H627v52.07h34C678.79,702.81,690.83,699,690.83,676.77Z"/><path d="M782.13,673.5h58.09v49.06h-17.4l-1.05-14.39c-8.64,9.42-22.37,15.7-41.87,15.7-33.75,0-54.42-16.75-54.42-47.1s20.67-47.1,58.35-47.1c36.63,0,54.95,14.27,56.39,37h-24c-1.3-6.94-7.58-17.27-32.44-17.27-30.61,0-34.8,16.88-34.8,27.86s4.32,28.4,34.8,28.4c22.76,0,31.92-10,32.44-16.88H782.13Z"/><path d="M876.83,649.69v18.58h73.26v17H876.83v18.57h73.26v18.71H853.28V631h96.81v18.71Z"/></svg>